<svg width="124" height="34" viewBox="0 0 124 34" fill="none" xmlns="http://www.w3.org/2000/svg">
<g clip-path="url(#clip0_410_4121)">
<path d="M20.2674 8.92798L11.6732 33.3266C11.3744 34.1736 10.191 34.2394 9.7986 33.4313L5.73242 25.072L14.3266 0.676397C14.6255 -0.17061 15.8088 -0.236455 16.2012 0.571644L20.2674 8.93097V8.92798Z" fill="white"/>
<path d="M0.805947 12.0706L9.09528 10.3257L4.66987 22.8871L0.102592 13.4952C-0.184184 12.9056 0.162966 12.2083 0.805947 12.0706Z" fill="white"/>
<path d="M25.1941 21.9294L16.9048 23.6743L21.3302 11.1129L25.8975 20.5048C26.1842 21.0944 25.8371 21.7917 25.1941 21.9294Z" fill="white"/>
</g>
<path d="M36.8501 26V8.5H42.7251C47.5251 8.5 51.6501 11.425 51.6501 17.25C51.6501 23.05 47.5251 26 42.7251 26H36.8501ZM40.2501 23.1H42.3251C45.5501 23.1 48.2501 21.275 48.2501 17.25C48.2501 13.225 45.5501 11.4 42.3251 11.4H40.2501V23.1ZM59.637 26.2C55.687 26.2 53.162 23.5 53.162 19.7C53.162 15.9 55.837 13.2 59.512 13.2C63.612 13.2 66.137 16.375 65.587 20.375H56.337C56.587 22.475 57.912 23.55 59.637 23.55C61.187 23.55 62.137 22.8 62.362 21.875H65.537C65.037 24.4 63.137 26.2 59.637 26.2ZM56.462 18.05H62.312C62.237 16.6 61.137 15.65 59.512 15.65C57.937 15.65 56.862 16.475 56.462 18.05ZM71.0624 26L66.0124 13.4H69.4374L72.6124 21.75L75.7624 13.4H79.1124L74.0624 26H71.0624ZM85.796 26.2C83.146 26.2 81.446 24.55 81.446 21.8V15.975H79.421V13.4H81.446V10.325H84.621V13.4H87.596V15.975H84.621V21.525C84.621 22.8 85.271 23.45 86.296 23.45C86.771 23.45 87.246 23.35 87.621 23.2V25.875C87.221 26.05 86.521 26.2 85.796 26.2ZM89.5792 26V13.4H92.7542V15.1C93.4542 13.9 94.8042 13.2 96.4292 13.2C96.9792 13.2 97.4292 13.275 97.8542 13.475V16.45C97.2292 16.225 96.7292 16.175 96.1542 16.175C94.3292 16.175 92.7542 17.675 92.7542 21.225V26H89.5792ZM104.928 26.2C101.103 26.2 98.328 23.475 98.328 19.675C98.328 15.875 101.103 13.2 104.928 13.2C108.753 13.2 111.528 15.875 111.528 19.675C111.528 23.5 108.753 26.2 104.928 26.2ZM104.928 23.5C106.928 23.5 108.328 21.95 108.328 19.675C108.328 17.45 106.928 15.9 104.928 15.9C102.928 15.9 101.528 17.425 101.528 19.675C101.528 21.95 102.928 23.5 104.928 23.5ZM120.218 26L117.668 22.2L115.118 26H111.518L115.868 19.55L111.718 13.4H115.418L117.693 16.8L119.993 13.4H123.568L119.493 19.475L123.868 26H120.218Z" fill="white"/>
<defs>
<clipPath id="clip0_410_4121">
<rect width="26" height="34" fill="white"/>
</clipPath>
</defs>
</svg>
