<svg class="transform-gpu" overflow="visible" width="100%" height="100%" viewBox="0 0 106 17" fill="none" xmlns="http://www.w3.org/2000/svg" style="fill: none !important;"><path opacity="1" id="C" d="M0 8.5C0 3.61351 4.15135 0.5 9.85946 0.5C15.5676 0.5 18.7676 3.2027 18.8757 7.18108L13.9459 7.33243C13.8162 5.12703 11.8595 3.67838 9.85946 3.72162C7.11351 3.77568 5.08108 5.6027 5.08108 8.5C5.08108 11.3973 7.11351 13.1919 9.85946 13.1919C11.8595 13.1919 13.773 11.8081 13.9892 9.6027L18.9189 9.71081C18.7892 13.7541 15.3946 16.5 9.85946 16.5C4.32433 16.5 0 13.3649 0 8.5Z" fill="currentColor" style="transform: none; transform-origin: 50% 50%; transform-box: fill-box; fill: oklch(0.141 0.005 285.823) !important; opacity: 1 !important;"/><path opacity="1" id="O" fill-rule="evenodd" clip-rule="evenodd" d="M20.6593 8.5C20.6593 3.67838 24.562 0.5 30.1728 0.5C35.7837 0.5 39.6864 3.65676 39.6864 8.5C39.6864 13.3432 35.7837 16.5 30.1728 16.5C24.562 16.5 20.6593 13.3216 20.6593 8.5ZM25.7404 8.5C25.7404 11.3108 27.5674 13.2351 30.1728 13.2351C32.7999 13.2351 34.6053 11.3541 34.6053 8.5C34.6053 5.64595 32.7783 3.67838 30.1728 3.67838C27.5674 3.67838 25.7404 5.68919 25.7404 8.5Z" fill="currentColor" style="transform: none; transform-origin: 50% 50%; transform-box: fill-box; fill: oklch(0.141 0.005 285.823) !important; opacity: 1 !important;"/><path opacity="1" id="D" fill-rule="evenodd" clip-rule="evenodd" d="M41.4269 16.0676V0.932454H47.6971C53.7728 0.932454 57.8593 3.76489 57.8593 8.50002C57.8593 13.2352 53.7728 16.0676 47.6971 16.0676H41.4269ZM46.3998 13.0406H47.4809C50.6809 13.0406 52.8215 11.3973 52.8215 8.50002C52.8215 5.60273 50.6809 3.93786 47.4809 3.93786H46.3998V13.0406Z" fill="currentColor" style="transform: none; transform-origin: 50% 50%; transform-box: fill-box; fill: oklch(0.141 0.005 285.823) !important; opacity: 1 !important;"/><path opacity="1" id="E" d="M64.5407 4.06759H72.3245V0.932454H59.611V16.0676H72.4758V12.8243H64.5407V9.84056H71.3515V6.96489H64.5407V4.06759Z" fill="currentColor" style="transform: none; transform-origin: 50% 50%; transform-box: fill-box; fill: oklch(0.141 0.005 285.823) !important; opacity: 1 !important;"/><path opacity="1" id="R" fill-rule="evenodd" clip-rule="evenodd" d="M84.8971 9.04056C87.8917 9.23516 89.3079 10.7811 89.8917 13.1487L90.4971 16.0676H84.8106L84.3349 13.3649C83.9241 11.6135 82.5187 10.9865 80.9404 10.9865H79.6214V16.0676H74.6485V0.932454H82.5404C87.0809 0.932454 89.8485 2.59732 89.8485 5.30002C89.8485 7.52705 87.9674 8.91083 84.8971 8.91083V9.04056ZM79.6214 8.32705H82.1079C83.816 8.32705 84.8755 7.46218 84.8755 6.0784C84.8755 4.69462 83.816 3.85137 82.1079 3.85137H79.6214V8.32705Z" fill="currentColor" style="transform: none; transform-origin: 50% 50%; transform-box: fill-box; fill: oklch(0.141 0.005 285.823) !important; opacity: 1 !important;"/><g id="cursor-group" style="transform: none; transform-origin: 50% 50%; transform-box: fill-box; fill: none !important;"><path class="!origin-bottom [transform:translateX(-685%)_translateY(0%)_scaleY(1)_scaleX(1)]" opacity="1" id="cursor" d="M92.6811 0.932454H105.654V16.0676H92.6811V0.932454Z" fill="currentColor" style="transform: none; transform-origin: 50% 50%; transform-box: fill-box; fill: oklch(0.141 0.005 285.823) !important; opacity: 1 !important;"/></g></svg>